# xmcd
#
# Track frame offsets:
#	150
#	12940
#	24147
#	36875
#	48882
#	61655
#	72200
#	84817
#	96700
#	107197
#
# Disc length: 1564 seconds
#
# Revision: 0
# Processed by: cddbd v1.4PL0 Copyright (c) Steve Scherf et al.
# Submitted via: dBpowerAMP V4.0
#
DISCID=72061a0a
DTITLE=Jimmy Reed - Honest I Do and Other Classics
DYEAR=1900
DGENRE=Blues
TTITLE0=Jimmy Reed-Shame! Shame! Shame!
TTITLE1=Jimmy Reed-Hush, Hush
TTITLE2=Jimmy Reed-The Sun Is Shining
TTITLE3=Jimmy Reed-Honest I Do
TTITLE4=Jimmy Reed-You've Got Me Dizzy
TTITLE5=Jimmy Reed-Baby What You Want Me To Do
TTITLE6=Jimmy Reed-Big Boss Man
TTITLE7=Jimmy Reed-Brights, Big City
TTITLE8=Jimmy Reed-Aw Shucks, Shut Your Mouth
TTITLE9=Jimmy Reed-Ain't That Lovin' You Baby
EXTD=
EXTT0=
EXTT1=
EXTT2=
EXTT3=
EXTT4=
EXTT5=
EXTT6=
EXTT7=
EXTT8=
EXTT9=
PLAYORDER=
